<?xml version="1.0" standalone="no"?><!DOCTYPE svg PUBLIC "-//W3C//DTD SVG 1.1//EN" "http://www.w3.org/Graphics/SVG/1.1/DTD/svg11.dtd"><svg t="1507278064840" class="icon" style="" viewBox="0 0 1024 1024" version="1.1" xmlns="http://www.w3.org/2000/svg" p-id="1259" xmlns:xlink="http://www.w3.org/1999/xlink" width="800" height="800"><defs><style type="text/css"></style></defs><path d="M491.184 126.464c7.52-7.056 15.104-14.048 22.656-21.072 0.048 61.424 0.352 122.848 0.416 184.272 0.88 45.856 0.16 91.712 0.384 137.568-0.048 100.24 0.096 200.48-0.064 300.704 0.432 2.512-2.56 2.304-4.144 2.432-12.752 0.288-25.536 0.224-38.272 1.008-4.256 7.888-8.432 15.808-12.688 23.696 35.648 0.384 71.312-0.128 106.96 0.256-3.872 9.424-6.704 19.488-11.568 28.384-20.576 0.784-41.216-0.096-61.808 0.384-3.968 8.256-7.088 16.912-11.376 25.024 19.696 1.216 39.472-0.048 59.184 0.624 1.936 16.96 3.328 33.984 4.768 50.992-10.064 0.256-20.112-0.128-30.16 0.16-0.464 7.952-0.688 15.936-0.656 23.904-36.064 0.16-71.52-11.472-101.968-30.464-43.456-27.04-77.568-66.944-103.68-110.528-21.104-35.472-37.088-73.888-48.128-113.632-11.808-2.576-23.616-5.168-35.424-7.776-8.032-42.672-16.016-85.328-24-128 14.224-8.096 28.448-16.208 42.704-24.256 4.144-57.872 20.976-115.632 53.728-163.92 27.92-41.44 67.776-74.944 114.016-94.096 21.984-9.152 45.248-15.312 68.912-18.016 3.472-22.544 6.816-45.104 10.208-67.648m-74.816 112.4c-12.592 2.16-17.792 19.632-8.368 28.272 8.288 9.088 25.168 4.672 28.032-7.264 4.128-11.552-7.856-24.368-19.664-21.008m-60.672 40.048c-2.976 1.008-5.264 3.248-7.488 5.36-20.656 20.032-37.76 43.696-50.576 69.44-4.784 9.12 1.232 21.344 11.216 23.424 7.52 1.92 15.664-2.24 18.928-9.184 11.52-22.544 26.464-43.408 44.896-60.816 5.808-5.088 7.296-14.112 3.44-20.8-3.744-7.12-12.992-10.32-20.416-7.424m-48.016 187.2c-5.056 5.328-8.096 12.08-11.232 18.64l0.144 0.272c-3.968 13.328-2.512 27.968 3.008 40.64-1.008 5.248 1.456 10.192 3.168 15.008 7.424 19.52 23.024 35.472 41.92 44.192 23.808 10.912 51.728 12.48 76.688 4.608 14.016-4.768 28.112-13.248 34.448-27.232 6.576-8.656 12.144-18.528 13.168-29.552 2.368-19.456-6.464-38.576-19.248-52.8-22.432-24.784-56.48-38.112-89.728-36.48-19.312 1.088-39.152 8.064-52.336 22.704z" fill="#C7C7C7" p-id="1260"></path><path d="M513.84 105.392c7.504 6.352 14.864 12.864 22.384 19.2 3.12 2.272 2.32 6.592 3.056 9.904 3.232 19.728 5.536 39.632 9.232 59.248 42.592 5.248 83.84 21.072 118.656 46.208 34.832 25.024 62.832 59.008 82.176 97.184 20.928 41.12 32.08 86.784 35.392 132.672 14.144 8.272 28.48 16.208 42.688 24.384-7.776 42.816-15.904 85.6-24.032 128.352-11.68 2.928-23.552 5.12-35.248 7.968-16.24 56.848-41.84 111.568-78.944 157.856-20.592 25.792-44.944 48.816-73.056 66.272-30.272 18.688-65.488 30.88-101.328 30.16-0.032-7.968 0.192-15.952 0.656-23.904 10.048-0.288 20.096 0.096 30.16-0.16-1.44-17.008-2.832-34.032-4.768-50.992-19.712-0.672-39.488 0.592-59.184-0.624 4.288-8.112 7.408-16.768 11.376-25.024 20.592-0.48 41.232 0.4 61.808-0.384 4.864-8.896 7.696-18.96 11.568-28.384-35.648-0.384-71.312 0.128-106.96-0.256 4.256-7.888 8.432-15.808 12.688-23.696 12.736-0.784 25.52-0.72 38.272-1.008 1.584-0.128 4.576 0.08 4.144-2.432 0.16-100.224 0.016-200.464 0.064-300.704-0.224-45.856 0.496-91.712-0.384-137.568-0.064-61.424-0.368-122.848-0.416-184.272m71.504 371.216c-12.96 13.216-22.768 30.8-22.704 49.712-0.24 12.112 4.352 23.92 11.824 33.328 10.72 13.344 27.392 20.64 43.984 23.344 27.04 3.952 55.264-2.64 78.192-17.408 19.504-12.496 36.016-31.792 40.288-55.056 1.072-8.688 1.44-18-2.064-26.192-3.472-11.024-11.184-20.592-20.656-27.184-14.096-9.872-31.568-14.016-48.624-13.904-29.648 0.336-59.328 12.192-80.24 33.36zM299.6 525.664c16.88 35.968 56.768 57.472 95.632 58.368 22 1.024 44.816-6.032 60.592-21.792-6.336 13.984-20.432 22.464-34.448 27.232-24.96 7.872-52.88 6.304-76.688-4.608-18.896-8.72-34.496-24.672-41.92-44.192-1.712-4.816-4.176-9.76-3.168-15.008z" fill="#979797" p-id="1261"></path><path d="M416.368 238.864c11.808-3.36 23.792 9.456 19.664 21.008-2.864 11.936-19.744 16.352-28.032 7.264-9.424-8.64-4.224-26.112 8.368-28.272zM355.696 278.912c7.424-2.896 16.672 0.304 20.416 7.424 3.856 6.688 2.368 15.712-3.44 20.8-18.432 17.408-33.376 38.272-44.896 60.816-3.264 6.944-11.408 11.104-18.928 9.184-9.984-2.08-16-14.304-11.216-23.424 12.816-25.744 29.92-49.408 50.576-69.44 2.224-2.112 4.512-4.352 7.488-5.36z" fill="#FFFFFF" p-id="1262"></path><path d="M307.68 466.112c13.184-14.64 33.024-21.616 52.336-22.704 33.248-1.632 67.296 11.696 89.728 36.48 12.784 14.224 21.616 33.344 19.248 52.8-1.024 11.024-6.592 20.896-13.168 29.552-1.792-0.976-3.632-1.024-5.52-0.128-28.048 9.344-59.232 7.664-86.864-2.304-25.136-8.96-47.36-27.36-58.352-51.984-3.776-7.264-4.688-15.584-8.496-22.8l-0.144-0.272c3.136-6.56 6.176-13.312 11.232-18.64zM585.344 476.608c20.912-21.168 50.592-33.024 80.24-33.36 17.056-0.112 34.528 4.032 48.624 13.904 9.472 6.592 17.184 16.16 20.656 27.184-4.112 15.808-10.08 31.472-20.784 44.096-21.456 25.952-55.52 38.608-88.544 39.696-17.408 0.816-34.848-2.176-51.072-8.48-7.472-9.408-12.064-21.216-11.824-33.328-0.064-18.912 9.744-36.496 22.704-49.712z" fill="#FFE159" p-id="1263"></path><path d="M734.864 484.336c3.504 8.192 3.136 17.504 2.064 26.192-4.272 23.264-20.784 42.56-40.288 55.056-22.928 14.768-51.152 21.36-78.192 17.408-16.592-2.704-33.264-10-43.984-23.344 16.224 6.304 33.664 9.296 51.072 8.48 33.024-1.088 67.088-13.744 88.544-39.696 10.704-12.624 16.672-28.288 20.784-44.096zM296.592 485.024c3.808 7.216 4.72 15.536 8.496 22.8 10.992 24.624 33.216 43.024 58.352 51.984 27.632 9.968 58.816 11.648 86.864 2.304 1.888-0.896 3.728-0.848 5.52 0.128-15.776 15.76-38.592 22.816-60.592 21.792-38.864-0.896-78.752-22.4-95.632-58.368-5.52-12.672-6.976-27.312-3.008-40.64z" fill="#E3BB0B" p-id="1264"></path></svg>